IKResults
version=1
nRows=10
nColumns=29
inDegrees=yes

Units are S.I. units (second, meters, Newtons, ...)
If the header above contains a line with 'inDegrees', this indicates whether rotational values are in degrees (yes) or radians (no).

endheader
time	sternoclavicular_r2	sternoclavicular_r3	unrotscap_r3	unrotscap_r2	acromioclavicular_r2	acromioclavicular_r3	acromioclavicular_r1	unrothum_r1	unrothum_r3	unrothum_r2	elv_angle	shoulder_elv	shoulder1_r2	shoulder_rot	elbow_flexion	pro_sup	deviation	flexion	proximal_distal_r1	proximal_distal_r3	cmc_flexion	cmc_abduction	mp_flexion	ip_flexion	2mcp_flexion	2mcp_abduction	2pm_flexion	2md_flexion
      1.39000000	     -6.65934255	      2.82058320	     -2.82058320	      6.65934255	     -1.34838140	     10.89714421	      4.89819132	     -4.89819132	    -10.89714421	      1.34838140	     15.89215018	     27.51788273	    -15.89215018	      7.34362805	     78.71071129	     41.36153405	      0.21226615	      0.03663468	     14.39245029	      1.04950639	      3.36700001	     10.58092900	    -27.65299999	    -34.18399999	     -0.12506018	      7.65299997	     26.93900001	     34.89800000
      1.40000000	     -6.65703400	      2.81960541	     -2.81960541	      6.65703400	     -1.34791397	     10.89336658	      4.89649331	     -4.89649331	    -10.89336658	      1.34791397	     16.01731146	     27.50834332	    -16.01731146	      7.34346445	     78.63742579	     41.87672877	      0.21735024	      0.03275910	     14.68538947	      0.93847902	      3.36700001	     10.79073732	    -27.65299999	    -34.18399999	     -0.23656455	      7.65299997	     26.93900001	     34.89800000
      1.41000000	     -6.65986200	      2.82080322	     -2.82080322	      6.65986200	     -1.34848658	     10.89799423	      4.89857341	     -4.89857341	    -10.89799423	      1.34848658	     16.01497657	     27.52002925	    -16.01497657	      7.32916943	     78.63458443	     41.87939625	      0.21738922	      0.03256138	     14.68758408	      0.93281492	      3.36700001	     10.79113381	    -27.65299999	    -34.18399999	     -0.24367183	      7.65299997	     26.93900001	     34.89800000
      1.42000000	     -6.66672230	      2.82370891	     -2.82370891	      6.66672230	     -1.34987565	     10.90922020	      4.90361940	     -4.90361940	    -10.90922020	      1.34987565	     15.97053279	     27.54837750	    -15.97053279	      7.43850385	     78.63154779	     41.94582184	      0.22310283	      0.02893608	     15.01385516	      0.82895762	      3.36700001	     10.83392671	    -27.65299999	    -34.18399999	     -0.68677108	      7.65299997	     26.93900001	     34.89800000
      1.43000000	     -6.66121176	      2.82137491	     -2.82137491	      6.66121176	     -1.34875988	     10.90020293	      4.89956620	     -4.89956620	    -10.90020293	      1.34875988	     15.97352656	     27.52560674	    -15.97352656	      7.50920024	     78.67433953	     41.93367753	      0.22292212	      0.02932033	     15.00356359	      0.83996557	      3.36700001	     10.83498664	    -27.65299999	    -34.18399999	     -0.67332233	      7.65299997	     26.93900001	     34.89800000
      1.44000000	     -6.66262463	      2.82197333	     -2.82197333	      6.66262463	     -1.34904596	     10.90251490	      4.90060541	     -4.90060541	    -10.90251490	      1.34904596	     15.93085045	     27.53144501	    -15.93085045	      7.40020825	     78.62416206	     41.52349900	      0.20801424	      0.02971374	     14.14565419	      0.85123597	      3.36700001	     10.70223389	    -27.65299999	    -34.18399999	      0.22258644	      7.65299997	     26.93900001	     34.89800000
      1.45000000	     -6.65269398	      2.81776718	     -2.81776718	      6.65269398	     -1.34703520	     10.88626470	      4.89330106	     -4.89330106	    -10.88626470	      1.34703520	     16.06937134	     27.49040938	    -16.06937134	      7.36716708	     78.59357366	     41.56733439	      0.20888158	      0.02891815	     14.19611887	      0.82844409	      3.36700001	     10.67669579	    -27.65299999	    -34.18399999	      0.22002276	      7.65299997	     26.93900001	     34.89800000
      1.46000000	     -6.65462399	      2.81858464	     -2.81858464	      6.65462399	     -1.34742599	     10.88942291	      4.89472065	     -4.89472065	    -10.88942291	      1.34742599	     16.03705556	     27.49838462	    -16.03705556	      7.38253451	     78.66492195	     42.04774049	      0.21352567	      0.03011223	     14.46525015	      0.86265185	      3.36700001	     10.34563807	    -27.65299999	    -34.18399999	      0.28808680	      7.65299997	     26.93900001	     34.89800000
      1.47000000	     -6.65664790	      2.81944187	     -2.81944187	      6.65664790	     -1.34783579	     10.89273477	      4.89620931	     -4.89620931	    -10.89273477	      1.34783579	     15.82496411	     27.50674786	    -15.82496411	      7.37488141	     78.48686140	     40.76220304	      0.20905431	      0.02575238	     14.20617083	      0.73775129	      3.36700001	     10.83900927	    -27.65299999	    -34.18399999	      0.26960310	      7.65299997	     26.93900001	     34.89800000
      1.48000000	     -6.65445815	      2.81851440	     -2.81851440	      6.65445815	     -1.34739241	     10.88915153	      4.89459867	     -4.89459867	    -10.88915153	      1.34739241	     15.82755070	     27.49769932	    -15.82755070	      7.38040585	     78.44071554	     40.45838456	      0.20655536	      0.02260208	     14.06059732	      0.64750200	      3.36700001	     11.18005194	    -27.65299999	    -34.18399999	      0.54309101	      7.65299997	     26.93900001	     34.89800000
